<?xml version="1.0" encoding="utf-8"?>
<!-- Generator: Adobe Illustrator 26.0.2, SVG Export Plug-In . SVG Version: 6.00 Build 0)  -->
<svg version="1.1" id="图层_1" xmlns="http://www.w3.org/2000/svg" xmlns:xlink="http://www.w3.org/1999/xlink" x="0px" y="0px"
	 viewBox="0 0 16 16" style="enable-background:new 0 0 16 16;" xml:space="preserve">
<style type="text/css">
	.st0{fill:currentColor;}
</style>
<desc>Created with Pixso.</desc>
<path id="形状结合" class="st0" d="M10.7,1.9c0.4-0.4,1-0.3,1.4,0.1l2,2c0.4,0.4,0.4,1,0.1,1.4l-2.8,3.4L11.7,9
	c0.4,0.4,0.4,1,0.1,1.4l-2,2c-0.4,0.4-1.1,0.4-1.5,0l-2-2l-3.3,3.3c-0.2,0.2-0.5,0.2-0.7,0c-0.2-0.2-0.2-0.5,0-0.7l3.3-3.3l-2-2
	c-0.4-0.4-0.4-1-0.1-1.4l2-2c0.4-0.4,1.1-0.4,1.5,0l0.4,0.4L10.7,1.9z"/>
</svg>
